<?xml version="1.0" encoding="UTF-8" standalone="no"?>
<!-- Created with Inkscape (http://www.inkscape.org/) -->

<svg
   width="391.30283mm"
   height="287.51804mm"
   viewBox="0 0 391.30283 287.51804"
   version="1.1"
   id="svg10772"
   inkscape:version="1.1 (c68e22c387, 2021-05-23)"
   sodipodi:docname="logo-mv.svg"
   xmlns:inkscape="http://www.inkscape.org/namespaces/inkscape"
   xmlns:sodipodi="http://sodipodi.sourceforge.net/DTD/sodipodi-0.dtd"
   xmlns="http://www.w3.org/2000/svg"
   xmlns:svg="http://www.w3.org/2000/svg">
  <sodipodi:namedview
     id="namedview10774"
     pagecolor="#ffffff"
     bordercolor="#666666"
     borderopacity="1.0"
     inkscape:pageshadow="2"
     inkscape:pageopacity="0.0"
     inkscape:pagecheckerboard="0"
     inkscape:document-units="mm"
     showgrid="false"
     inkscape:zoom="0.13039513"
     inkscape:cx="2028.4499"
     inkscape:cy="1361.2471"
     inkscape:window-width="1920"
     inkscape:window-height="991"
     inkscape:window-x="-9"
     inkscape:window-y="-9"
     inkscape:window-maximized="1"
     inkscape:current-layer="layer1" />
  <defs
     id="defs10769" />
  <g
     inkscape:label="Layer 1"
     inkscape:groupmode="layer"
     id="layer1"
     transform="translate(566.7038,87.971134)">
    <path
       style="fill:#8954c0;fill-opacity:1;stroke:#8954c0;stroke-width:26.4583;stroke-linejoin:round;stroke-miterlimit:4;stroke-dasharray:none;stroke-opacity:1"
       class="cls-2"
       d="m -193.09363,-66.740981 q -4.46352,-4.865688 -11.69459,-4.865688 -8.92968,0 -14.45683,4.325938 -11.05165,51.366207 -25.72544,104.354314 -14.67379,52.9881 -31.67856,107.613967 h -1.70127 q -2.55058,-9.18897 -6.59077,-22.16679 -4.04019,-12.97781 -8.08038,-26.781117 -4.04548,-13.78744 -7.86606,-27.03513 -3.82058,-13.24768 -6.3791,-22.44195 l -26.36311,-96.787232 q -3.41048,-11.353271 -7.44009,-16.221604 -3.11414,-3.7465 -8.36082,-4.60375 c 0.16139,-0.264583 0.32279,-0.529167 0.48418,-0.79375 q -4.74133,-2.600854 -12.32691,-2.598208 a 48.114479,48.114479 0 0 0 -9.53822,1.058333 q -5.13821,1.058333 -8.43492,3.14325 -5.50598,14.676437 -12.47246,32.279166 -6.96648,17.602729 -14.67114,37.71635483 -7.70467,20.10833017 -15.77446,41.70627017 -8.06979,21.59794 -16.13959,43.79912 h -1.46579 q -6.24416,-16.75606 -13.02279,-35.2081 -6.77862,-18.45204 -13.93825,-37.30625 -7.14376,-18.8647902 -14.30603,-37.094582 -7.16227,-18.229792 -14.10758,-34.578396 -6.61459,-15.501937 -23.47648,-15.507229 -6.97442,0 -12.47246,2.513542 -5.49804,2.513541 -8.43492,5.450416 -1.47108,19.703521 -3.11943,43.590104 -1.64836,23.88658483 -3.31259,48.622475 -1.651,24.73854 -2.93423,48.62248 -1.28323,23.88394 -2.38125,43.590107 -1.10066,19.70881 -1.64835,33.53329 -0.54769,13.82448 -0.55033,18.02341 0,7.14375 3.29935,10.89555 3.29935,3.75179 11.37708,3.77295 a 32.152166,32.152166 0 0 0 7.51946,-0.83873 49.212499,49.212499 0 0 0 5.6859,-1.67481 q 1.4605,-30.17837 2.93423,-56.58644 1.47373,-26.408057 2.93423,-52.183767 1.4605,-25.7757 2.75166,-52.81347 1.29117,-27.0377702 2.38125,-58.47292 h 1.45521 q 8.80269,25.571979 23.10871,64.55833 14.30602,38.98636 34.11274,85.926087 a 11.980333,11.980333 0 0 0 6.42408,6.69924 q 4.57994,2.10344 10.45369,2.0955 a 25.042812,25.042812 0 0 0 9.35302,-1.67745 q 4.21481,-1.66688 6.78656,-3.77032 11.00667,-28.498267 19.80671,-51.765717 8.80004,-23.26746 15.95702,-41.70627 7.14375,-18.4388202 12.47246,-33.112608 5.17789,-14.2875 9.14929,-25.81275 1.96321,7.495646 4.23333,15.663333 5.95048,21.36774483 12.75554,44.338875 6.80508,22.97112 14.02291,46.23064 7.22312,23.25423 14.02292,43.796477 6.79981,20.54225 12.75823,36.77709 5.94783,16.2216 9.78958,25.41323 4.67519,11.35327 20.40996,11.35327 a 38.398979,38.398979 0 0 0 11.26861,-1.6219 q 5.31283,-1.62454 7.44272,-3.78354 6.7945,-16.22425 14.6685,-38.39104 7.874,-22.16679 15.73477,-46.230647 7.86078,-24.05327 14.88282,-48.39229 7.02204,-24.33902 12.54389,-44.6087502 5.51921,-20.2750188 8.92969,-35.1472478 3.41048,-14.872229 3.41842,-20.833292 0,-9.178395 -4.46352,-14.049374 z"
       id="path10-8-9" />
  </g>
</svg>
